<?xml version="1.0" encoding="utf-8"?>
<!-- Generator: Adobe Illustrator 17.0.0, SVG Export Plug-In . SVG Version: 6.00 Build 0)  -->
<!DOCTYPE svg PUBLIC "-//W3C//DTD SVG 1.1//EN" "http://www.w3.org/Graphics/SVG/1.1/DTD/svg11.dtd">
<svg version="1.1" id="Capa_1" xmlns="http://www.w3.org/2000/svg" xmlns:xlink="http://www.w3.org/1999/xlink" x="0px" y="0px"
	 width="64px" height="64px" viewBox="0 0 64 64" enable-background="new 0 0 64 64" xml:space="preserve">
<path fill="#E0E2E4" d="M51.916,28.173c0.412,0,0.802-0.079,1.177-0.192l-2.821,17.957c-0.103-0.003-0.208,0.001-0.319,0.018
	c-7.053,1.102-12.621-2.534-15.964-8.299c1.011-1.846,0.143-4.763-2.609-4.763c-3.969,0-4.017,6.058-0.158,6.227
	c3.871,6.86,10.542,10.825,18.557,9.963l-1.925,12.251H15.661l-4.853-33.323c0.345,0.094,0.701,0.16,1.075,0.16v0.001H51.916z
	 M51.917,21.929H11.883c-1.17,0-2.122,0.951-2.122,2.121c0,0.62,0.272,1.174,0.698,1.562c0.377,0.344,0.874,0.56,1.424,0.56h40.034
	c0.55,0,1.048-0.216,1.425-0.561c0.425-0.388,0.696-0.941,0.696-1.561C54.039,22.88,53.087,21.929,51.917,21.929z M13.609,17.15
	c-3.712-5.532,4.925-7.697,6.902-1.919c0.475,1.389,2.627,1.586,3.01,0c2.755-11.427,18.036-9.028,17.744,2.576
	c-0.032,1.283,1.326,1.81,2.348,1.348c2.865-2.917,5.611-1.354,6.395,0.774c0.033,0.089,0.068,0.176,0.093,0.267
	c0.623,0.453,1.098,0.247,1.41-0.267c0.506-0.832,0.585-2.475,0.165-3.469c-1.253-2.968-4.782-2.473-7.396-1.825
	C42.886,2.501,26.939,0.74,21.671,11.228c-5.202-5.605-16.143-0.531-10.758,7.497C12.029,20.387,14.734,18.826,13.609,17.15z
	 M42.614,7.301c0-2.737,2.227-4.963,4.963-4.963c2.737,0,4.963,2.226,4.963,4.963s-2.226,4.963-4.963,4.963
	S42.614,10.038,42.614,7.301z M44.614,7.301c0,1.636,1.327,2.963,2.963,2.963c1.636,0,2.963-1.327,2.963-2.963
	c0-1.636-1.326-2.963-2.963-2.963C45.941,4.338,44.614,5.665,44.614,7.301z M16.781,5.046c0-1.968,1.602-3.57,3.57-3.57
	s3.57,1.602,3.57,3.57c0,1.968-1.601,3.57-3.57,3.57C18.383,8.616,16.781,7.014,16.781,5.046z M18.781,5.046
	c0,0.867,0.703,1.57,1.57,1.57s1.57-0.703,1.57-1.57s-0.703-1.57-1.57-1.57S18.781,4.179,18.781,5.046z"/>
</svg>
